<?xml version="1.0" encoding="utf-8"?>
<!-- Generator: Adobe Illustrator 22.0.1, SVG Export Plug-In . SVG Version: 6.00 Build 0)  -->
<svg version="1.1" id="Layer_1" xmlns="http://www.w3.org/2000/svg" xmlns:xlink="http://www.w3.org/1999/xlink" x="0px" y="0px"
	 viewBox="0 0 300 300" style="enable-background:new 0 0 300 300;" xml:space="preserve">
<style type="text/css">
	.st0{fill:#E62686;}
	.st1{fill:#FFFFFF;}
</style>
<g>
	<rect width="300" height="300"/>
	<path class="st0" d="M55.8,94.1h36.9l17.8,81.6h0.3l18.4-81.6h36.5V204h-23.7v-85.3h-0.3L121.7,204H99.5L79,118.6h-0.3V204H55.8
		V94.1z"/>
	<path class="st1" d="M244.2,188.7c0,0,0,10.4,0,15.3h-19.6c-0.8-2.5-1.4-5.1-1.5-7.6l0,0c-3.6,5.8-14,9.5-20.7,9.5
		c-14,0-24.5-7.7-24.5-21.7c0-17.6,14.2-23.8,37.5-27.1l7.7-1.1v-6.1c0-5.5-4.3-7.8-10.1-7.8c-6.9,0-10.2,2.5-11.3,9.8h-20.6
		c0.7-21,20.2-23,30.1-23c19.9,0,32.7,4.7,32.8,21.2V188.7z M223.3,168.3l-14.4,4.1c-5.4,1.5-10.3,3.6-10.3,9.5
		c0,5.8,4.8,8.3,10,8.3c8.4,0,14.7-5.6,14.7-16.8V168.3z"/>
</g>
</svg>
